<svg id="visual" viewBox="0 0 900 600" width="900" height="600" xmlns="http://www.w3.org/2000/svg" xmlns:xlink="http://www.w3.org/1999/xlink" version="1.1"><rect x="0" y="0" width="900" height="600" fill="#021521"></rect><path d="M0 452L25 454.5C50 457 100 462 150 462.5C200 463 250 459 300 458C350 457 400 459 450 459.8C500 460.7 550 460.3 600 464.8C650 469.3 700 478.7 750 482.2C800 485.7 850 483.3 875 482.2L900 481L900 601L875 601C850 601 800 601 750 601C700 601 650 601 600 601C550 601 500 601 450 601C400 601 350 601 300 601C250 601 200 601 150 601C100 601 50 601 25 601L0 601Z" fill="#dbfa69"></path><path d="M0 481L25 486.8C50 492.7 100 504.3 150 508.3C200 512.3 250 508.7 300 505C350 501.3 400 497.7 450 497.3C500 497 550 500 600 502.5C650 505 700 507 750 508.7C800 510.3 850 511.7 875 512.3L900 513L900 601L875 601C850 601 800 601 750 601C700 601 650 601 600 601C550 601 500 601 450 601C400 601 350 601 300 601C250 601 200 601 150 601C100 601 50 601 25 601L0 601Z" fill="#a8d84a"></path><path d="M0 523L25 522C50 521 100 519 150 523.3C200 527.7 250 538.3 300 542.8C350 547.3 400 545.7 450 539.3C500 533 550 522 600 519.3C650 516.7 700 522.3 750 527.2C800 532 850 536 875 538L900 540L900 601L875 601C850 601 800 601 750 601C700 601 650 601 600 601C550 601 500 601 450 601C400 601 350 601 300 601C250 601 200 601 150 601C100 601 50 601 25 601L0 601Z" fill="#74b62c"></path><path d="M0 549L25 553.5C50 558 100 567 150 568.7C200 570.3 250 564.7 300 560.8C350 557 400 555 450 552.8C500 550.7 550 548.3 600 550C650 551.7 700 557.3 750 558.3C800 559.3 850 555.7 875 553.8L900 552L900 601L875 601C850 601 800 601 750 601C700 601 650 601 600 601C550 601 500 601 450 601C400 601 350 601 300 601C250 601 200 601 150 601C100 601 50 601 25 601L0 601Z" fill="#3d950a"></path></svg>